<?xml version="1.0" encoding="utf-8"?>
<!-- Generator: Adobe Illustrator 16.0.0, SVG Export Plug-In . SVG Version: 6.00 Build 0)  -->
<!DOCTYPE svg PUBLIC "-//W3C//DTD SVG 1.1//EN" "http://www.w3.org/Graphics/SVG/1.1/DTD/svg11.dtd">
<svg version="1.1" id="Layer_1" xmlns="http://www.w3.org/2000/svg" xmlns:xlink="http://www.w3.org/1999/xlink" x="0px" y="0px"
	 width="525px" height="700px" viewBox="0 0 525 700" enable-background="new 0 0 525 700" xml:space="preserve">
<path fill="#272F5E" d="M524.677,460.613V65.168c0,0-2.993-22.199-43.729-35.714c-14.71-4.88-35.441-9.143-58.337-12.796
	C380.523,8.71,320.985,0,262.177,0c0,0-0.001,0-0.002,0l0,0l0,0c-58.805,0-118.34,8.709-160.43,16.656
	c-22.896,3.654-43.632,7.917-58.344,12.798C2.668,42.969-0.325,65.168-0.325,65.168v395.445c0,0-0.754,40.906,41.778,74.349
	C83.987,568.403,262.175,700,262.175,700s178.188-131.598,220.723-165.038C525.432,501.52,524.677,460.613,524.677,460.613z"/>
<path fill="#FFFFFF" d="M360.909,109.603c-10.524,5.984-32.79,2.136-32.79,2.136s-6.771,15.683-24.235,19.603
	c-17.464,3.921-30.652-9.979-30.652-9.979v73.604L413.438,87.402c-7.037-1.45-14.649-2.809-22.588-4.076
	c-5.359-1.012-11.076-2.04-17.084-3.052C374.528,87.626,374.117,102.092,360.909,109.603z"/>
<polygon fill="#FFFFFF" points="38.28,50.743 44.338,69.388 63.943,69.388 48.083,80.912 54.141,99.557 38.28,88.034 22.419,99.557 
	28.478,80.912 12.617,69.388 32.222,69.388 "/>
<polygon fill="#FFFFFF" points="35.28,205.743 41.338,224.388 60.943,224.388 45.083,235.912 51.141,254.557 35.28,243.034 
	19.419,254.557 25.478,235.912 9.617,224.388 29.222,224.388 "/>
<path fill="#FFFFFF" stroke="#000000" stroke-miterlimit="10" d="M38.28,50.743"/>
<path fill="#FFFFFF" stroke="#000000" stroke-miterlimit="10" d="M22.419,99.557"/>
<path fill="#FFFFFF" stroke="#000000" stroke-miterlimit="10" d="M54.141,99.557"/>
<path fill="#FFFFFF" stroke="#000000" stroke-miterlimit="10" d="M38.28,50.743"/>
<path fill="#FFFFFF" stroke="#000000" stroke-miterlimit="10" d="M63.943,69.388"/>
<path fill="#FFFFFF" stroke="#000000" stroke-miterlimit="10" d="M12.617,69.388"/>
<path fill="#FFFFFF" stroke="#000000" stroke-miterlimit="10" d="M22.419,99.557"/>
<path fill="#FFFFFF" stroke="#000000" stroke-miterlimit="10" d="M63.943,69.388"/>
<polygon fill="#FFFFFF" points="38.28,386.613 44.338,405.258 63.943,405.258 48.083,416.782 54.141,435.427 38.28,423.903 
	22.419,435.427 28.478,416.782 12.617,405.258 32.222,405.258 "/>
<polygon fill="#FFFFFF" points="188.566,277.387 194.624,296.031 214.229,296.031 198.369,307.556 204.427,326.2 188.566,314.677 
	172.706,326.2 178.764,307.556 162.903,296.031 182.508,296.031 "/>
<polygon fill="#FFFFFF" points="329.548,177.336 335.605,195.98 355.211,195.98 339.351,207.505 345.407,226.149 329.548,214.626 
	313.688,226.149 319.744,207.505 303.885,195.98 323.49,195.98 "/>
<polygon fill="#FFFFFF" points="467.321,51.743 473.379,70.388 492.984,70.388 477.123,81.912 483.182,100.557 467.321,89.033 
	451.461,100.557 457.519,81.912 441.657,70.388 461.264,70.388 "/>
<polygon fill="#FFFFFF" points="255.321,23.743 261.379,42.388 280.984,42.388 265.124,53.912 271.182,72.557 255.321,61.033 
	239.461,72.557 245.519,53.912 229.658,42.388 249.264,42.388 "/>
<path fill="#FFFFFF" d="M203.017,131.697c-21.385-2.139-31.721-21.028-31.721-21.028s-17.821,13.188-34.572-1.781
	c-10.22-9.134-14.465-17.861-15.901-23.284c-12.957,2.376-24.506,5.028-33.34,7.96c-5.764,1.912-10.565,4.043-14.595,6.254v248.847
	l32.708-25.092c0.25-38.319-15.207-55.365-15.207-55.365c29.808-34.216,26.838-87.681,26.838-87.681
	c-0.637-12.741-3.646-21.815-6.272-27.463c-0.001-0.003-0.001-0.005-0.002-0.008c-2.553-6.906-0.154-10.652,2.229-12.71l0,0
	c8.341-4.008,12.136,0.621,12.136,0.621l8.91-6.771c8.198-4.99,9.268-1.426,9.268-1.426l6.416-7.128c0,0,6.771-5.703,12.117,0
	c5.347,5.703-0.355,13.899-0.355,13.899l-5.346,7.841c0,0-4.635,12.831,1.781,21.028s17.108,10.693,17.108,10.693
	s7.783-14.354,13.544-23.88c9.267-15.326,21.741-9.268,21.741-9.268s-7.962,37.135-14.257,53.106
	c-5.292,13.428-21.028,24.235-21.028,24.235s2.139,17.822-6.059,30.652c-8.198,12.83-20.316,24.593-20.316,24.593l5.396,7.71
	l83.352-63.943v-97.384C237.59,124.925,224.402,133.836,203.017,131.697z"/>
<path fill="#CF3927" d="M365.741,594.882c0.563-0.421,1.128-0.843,1.691-1.264h-1.691V594.882z"/>
<path fill="#CF3927" d="M442.564,537.44c0.19-0.143,0.383-0.286,0.571-0.428h-0.571V537.44z"/>
<path fill="#CF3927" d="M227.213,326.271v319.377c0.089,0.066,0.179,0.134,0.269,0.2V326.065L227.213,326.271z"/>
<path fill="#C83B1B" d="M442.564,161.059v375.953h0.571c12.93-9.682,21.394-16.034,22.43-16.849
	c37.177-29.229,38.407-64.654,38.438-68.118v-0.28v-337.84L442.564,161.059z"/>
<path fill="#FFFFFF" d="M442.564,161.059l-76.822,58.936v373.623h1.691c28.337-21.175,56.321-42.096,75.131-56.178v-0.428V161.059z"
	/>
<path fill="#C83B1B" d="M365.741,219.995l-61.438,47.134V640.78c17.939-13.398,39.738-29.683,61.438-45.898v-1.264V219.995z"/>
<path fill="#FFFFFF" d="M304.303,640.78V267.129l-76.822,58.936v319.783C248.331,661.421,262.5,672,262.5,672
	S279.801,659.082,304.303,640.78z"/>
<path fill="#C83B1B" d="M165.774,373.405v226.349c22.211,16.596,44.108,32.951,61.438,45.895V326.271L165.774,373.405z"/>
<path fill="#FFFFFF" d="M88.952,542.32c20.445,15.302,48.877,36.554,76.822,57.434V373.405l-76.822,58.936V542.32z"/>
<path fill="#C83B1B" d="M59.436,520.164c1.255,0.987,12.678,9.554,29.517,22.156V432.341l-61.438,47.134
	C32.773,491.856,42.274,506.671,59.436,520.164z"/>
</svg>
